<svg xmlns="http://www.w3.org/2000/svg" viewBox="0 0 512 498" width="512" height="498">
<path fill="#6FC8C1" fill-rule="evenodd" d="M38 497.67C38 497.49 38.37 497.07 38.81 496.74C40.72 495.32 44.24 493.06 45.75 492.3C46.64 491.85 47.54 491.38 47.75 491.26C48.53 490.79 52.23 489.16 54.99 488.07C56.56 487.44 58.19 486.72 58.61 486.47C59.03 486.21 59.63 486 59.94 486C60.25 486 60.92 485.77 61.43 485.5C61.95 485.23 62.54 485 62.75 484.99C62.95 484.99 63.58 484.77 64.12 484.5C64.67 484.23 65.28 484.01 65.47 484.01C65.66 484 66.28 483.79 66.85 483.53C68.31 482.86 70.5 482.05 71.38 481.85C71.79 481.76 72.24 481.6 72.38 481.5C72.51 481.41 73.75 480.96 75.12 480.51C76.5 480.06 77.91 479.55 78.25 479.38C78.91 479.05 79.88 478.69 81.75 478.07C83.32 477.55 87.16 476.06 88.44 475.48C89.03 475.22 89.71 475 89.95 475C90.2 475 90.84 474.77 91.38 474.5C91.91 474.23 92.47 474 92.62 474C92.76 474 93.27 473.79 93.75 473.54C94.23 473.28 94.95 473 95.36 472.9C95.76 472.8 96.88 472.34 97.86 471.88C99.4 471.15 102.16 470.06 104.62 469.19C105.58 468.86 106.28 468.56 106.75 468.28C107.65 467.76 109.55 467 109.97 467C110.23 467 110.72 466.77 111.07 466.5C111.42 466.23 111.89 466 112.11 466C112.34 466 112.94 465.79 113.45 465.53C115.35 464.57 116.65 464.03 117.42 463.88C117.86 463.79 118.35 463.56 118.51 463.36C118.68 463.16 118.92 463 119.05 463C119.33 463 121.53 462.01 123.81 460.85C124.73 460.38 125.7 460 125.96 460C126.22 460 126.7 459.79 127.03 459.53C127.36 459.28 127.91 458.99 128.25 458.88C128.96 458.67 133.18 456.65 139.38 453.56C141.71 452.39 143.96 451.28 144.38 451.08C144.79 450.88 145.29 450.61 145.5 450.49C145.71 450.36 146.23 450.1 146.66 449.9C147.09 449.71 147.51 449.44 147.6 449.29C147.68 449.15 148.1 448.96 148.53 448.87C148.95 448.78 149.81 448.35 150.43 447.91C151.95 446.84 152 446.81 153 446.39C153.48 446.18 154.55 445.62 155.38 445.15C156.2 444.67 157.21 444.1 157.62 443.88C158.04 443.66 158.82 443.21 159.38 442.87C159.93 442.54 160.62 442.15 160.91 442.02C162.12 441.48 164.48 439.64 166.88 437.36C168.33 435.99 170.83 434 172.65 432.77C175.78 430.66 175.88 430.57 175.96 429.63C176 429.09 176.2 428.43 176.39 428.15C176.59 427.87 176.75 427.47 176.76 427.26C176.76 427.05 177.04 426.31 177.38 425.62C177.72 424.94 178 424.15 178.01 423.88C178.02 423.6 178.35 422.76 178.74 422C179.14 421.24 179.75 420.01 180.11 419.25C180.47 418.49 180.92 417.59 181.12 417.25C181.32 416.91 181.66 416.2 181.89 415.69C182.12 415.17 182.39 414.75 182.5 414.75C182.61 414.75 182.82 414.44 182.96 414.06C183.25 413.31 185.3 410.34 187.54 407.43C189.17 405.32 194.97 399.42 197.07 397.75C197.96 397.04 198.56 396.35 198.69 395.88C198.8 395.46 198.82 393.77 198.72 392.12C198.63 390.48 198.61 388.7 198.68 388.19C198.8 387.32 198.68 387.09 196.72 384.69C195.57 383.28 194.46 381.95 194.25 381.73C194.04 381.5 193.43 380.78 192.88 380.12C191.73 378.74 189.89 376.55 189.41 376C188.86 375.36 185.39 370.74 185.13 370.3C184.99 370.06 183.81 368.24 182.5 366.25C179.81 362.14 179.85 362.21 178.04 358.56C177.31 357.08 176.6 355.66 176.46 355.4C176.15 354.83 175.35 352.56 174.9 350.99C174.72 350.36 174.44 349.61 174.29 349.32C174.13 349.02 174 348.58 174 348.33C174.01 348.08 173.79 347.14 173.52 346.25C172.92 344.2 171.99 340.04 172 339.38C172 338.68 170.77 332.11 170.38 330.75C170.2 330.13 169.97 328.95 169.88 328.12C169.78 327.3 169.58 326.4 169.43 326.12C169.28 325.85 169.09 325.23 169.01 324.75C168.81 323.61 168.48 323.63 164.62 325.03L161.62 326.12L156.88 326.11L152.12 326.1L149.75 325.15C147.37 324.19 146.48 323.74 144.62 322.53C141.65 320.6 138.14 317.29 135.54 313.96C134.82 313.03 133.98 312.24 133.65 312.15C133.11 312.02 128.88 309.32 127.98 308.54C125.15 306.09 122.54 302.99 121.73 301.14C121.6 300.86 121.4 300.46 121.27 300.25C120 298.24 118.36 293.62 118.08 291.3C117.96 290.37 117.83 290.17 117 289.75C116.47 289.48 115.61 289.15 115.08 289.02C111.91 288.23 106.92 285.99 105.7 284.81C105.39 284.51 104.52 283.72 103.78 283.06C102.25 281.71 100.36 278.97 99.68 277.12C99.26 276 98.62 273.56 98.35 272.07C98.19 271.22 97.47 270.95 96.6 271.43C96.2 271.64 94.81 271.97 93.5 272.15C89.61 272.69 86.53 272.11 83.72 270.3C79.53 267.6 77.45 265.52 74.62 261.18C74.28 260.65 74 260.09 74 259.92C74 259.75 73.8 259.23 73.55 258.75C73.29 258.27 72.95 257.2 72.78 256.38C72.61 255.55 72.36 254.47 72.23 253.97C71.93 252.79 71.94 250.99 72.26 249.12C72.41 248.3 72.63 246.92 72.76 246.05C72.89 245.18 73.17 244.15 73.37 243.76C73.57 243.37 73.81 242.56 73.89 241.96C73.98 241.36 74.26 240.57 74.52 240.2C74.79 239.83 75 239.28 75 238.99C75 238.69 75.17 238.15 75.37 237.79C75.58 237.42 75.86 236.84 76 236.5C76.14 236.16 76.35 235.71 76.47 235.5C76.6 235.29 76.82 234.84 76.97 234.5C77.12 234.16 77.35 233.71 77.47 233.5C77.6 233.29 77.82 232.84 77.97 232.5C78.12 232.16 78.34 231.71 78.46 231.5C78.57 231.29 78.84 230.79 79.06 230.38C80.32 227.96 81.37 226 81.9 225.12C82.47 224.17 82.78 223.56 83.12 222.75C83.2 222.54 83.54 221.93 83.87 221.38C84.99 219.48 85.55 218.24 85.42 217.9C85.35 217.72 84.75 217.5 84.08 217.41C81.11 217.02 80.08 216.8 79.38 216.42C78.96 216.19 78.47 216 78.28 216C77.75 216 73.78 214.02 72.38 213.05C70.77 211.95 69.17 210.4 68.31 209.13C67.93 208.58 67.49 208.04 67.31 207.93C67.14 207.82 67 207.52 67 207.27C67 207.02 66.8 206.55 66.55 206.22C65.95 205.41 65.15 203.3 64.48 200.75C64 198.93 63.92 197.96 63.92 194C63.91 190.9 64.02 189 64.23 188.25C64.41 187.63 64.71 186.43 64.89 185.58C65.07 184.72 65.62 183.19 66.11 182.17C66.6 181.16 67 180.11 67 179.84C67 179.58 67.22 179.17 67.5 178.93C67.77 178.7 68 178.34 68 178.15C68 177.79 69.18 175.9 71.43 172.64C72.69 170.81 79.47 163.7 80.9 162.71C81.37 162.39 83.24 161.12 85.06 159.88C86.88 158.65 88.58 157.44 88.82 157.2C89.07 156.95 89.53 156.75 89.86 156.75C90.48 156.75 90.83 156.24 90.6 155.65C90.53 155.46 90.05 155.24 89.55 155.16C86.42 154.64 79.73 149.4 77.69 145.88C76.78 144.3 75 140.48 75 140.11C75 139.89 74.78 139.19 74.51 138.55C73.93 137.13 73.71 134.76 73.75 130.21C73.8 125.68 74.28 122.82 75.6 119.38C75.81 118.83 75.98 118.17 75.99 117.91C76 117.66 76.22 117.17 76.5 116.82C76.78 116.47 77 115.99 77 115.75C77 115.51 77.16 115.17 77.37 115.01C77.57 114.84 77.8 114.47 77.89 114.19C77.99 113.9 78.5 113.04 79.03 112.27C79.56 111.5 80 110.74 80 110.57C80 110.41 80.14 110.18 80.31 110.07C80.48 109.96 80.9 109.48 81.23 109C82.73 106.84 88.79 100.85 90.46 99.9C90.68 99.77 91.35 99.29 91.95 98.83C92.55 98.37 93.18 98 93.36 98C93.53 98 93.87 97.78 94.11 97.51C94.35 97.25 94.88 96.96 95.27 96.87C95.67 96.78 96.06 96.61 96.14 96.48C96.31 96.21 100.59 94.09 101.65 93.76C103.28 93.24 104.6 92.71 105.09 92.36C105.38 92.16 105.85 92 106.15 92C107.16 92 107.28 91.52 106.98 88.84C106.68 86.3 106.83 80.85 107.23 79.25C108.64 73.62 110.18 70.41 113.23 66.76C115.03 64.61 118.25 61.75 119.94 60.81C120.25 60.64 120.75 60.36 121.06 60.19C121.37 60.02 121.79 59.74 122 59.58C122.53 59.17 124.23 58.58 127 57.83C128.98 57.3 130.12 57.18 133.83 57.07C138.88 56.92 139 56.87 139 55.1C139 52.76 140.31 46.68 141.55 43.25C142.87 39.61 145.92 35.07 148.64 32.69C151.62 30.08 151.84 29.92 155.59 27.44C156.16 27.07 156.81 26.76 157.04 26.75C157.27 26.75 158.51 26.39 159.79 25.95C161.99 25.21 162.34 25.16 165.88 25.14C169.4 25.13 172.88 25.55 175 26.26C177.63 27.13 180.59 28.28 181.05 28.61C181.36 28.82 181.84 29 182.12 29C182.41 29 182.86 29.16 183.13 29.35C183.4 29.54 184.27 29.86 185.06 30.06C186.39 30.39 186.55 30.39 187.25 29.96C187.75 29.66 188 29.31 188 28.91C188 28.58 188.17 27.83 188.37 27.25C188.58 26.67 188.75 25.76 188.75 25.24C188.75 23.76 190.81 19 192.58 16.41C194.64 13.39 199.53 8.5 202.32 6.66C204.83 5 208.69 3.13 210.14 2.86C210.68 2.76 211.35 2.53 211.62 2.36C211.9 2.19 213.31 1.79 214.75 1.47C218.52 0.65 224.65 0.65 228.75 1.48C230.33 1.8 231.91 2.2 232.25 2.38C232.59 2.55 233.27 2.77 233.75 2.87C234.6 3.04 236.49 3.79 237.25 4.27C237.46 4.4 237.91 4.61 238.25 4.75C238.59 4.89 239.04 5.11 239.25 5.25C239.46 5.38 240.16 5.78 240.82 6.13C241.48 6.48 242.09 6.94 242.17 7.14C242.25 7.35 242.64 7.69 243.04 7.89C243.44 8.1 245.26 9.73 247.09 11.51C248.93 13.29 250.72 14.98 251.09 15.27L251.76 15.79L253.09 15.24C253.82 14.94 254.89 14.28 255.46 13.78C258.49 11.15 259.81 10.17 260.7 9.89C260.98 9.8 261.34 9.57 261.51 9.37C261.67 9.16 262.01 9 262.25 9C262.49 9 262.95 8.8 263.28 8.55C264 8.02 265.92 7.27 268.62 6.47C270.47 5.92 271.05 5.88 276 5.89C280.78 5.9 281.62 5.97 283.62 6.48C284.86 6.8 286.1 7.2 286.38 7.37C286.66 7.54 287.27 7.77 287.75 7.87C288.23 7.98 289.04 8.27 289.55 8.53C290.06 8.79 290.79 9 291.18 9C292.2 9 296.22 9.98 297.38 10.52C297.93 10.77 298.94 11.24 299.62 11.56C301.8 12.55 305.15 14.96 306.8 16.71C308.23 18.23 310 20.55 310 20.91C310 20.99 310.28 21.39 310.63 21.8C310.97 22.2 311.25 22.7 311.25 22.9C311.25 23.09 311.64 23.82 312.12 24.5C312.61 25.18 313 25.9 313 26.08C313 26.27 313.22 26.69 313.5 27.02C315.52 29.48 315.83 29.75 316.52 29.75C317.17 29.75 318.57 29.26 319.5 28.72C320.36 28.21 324.62 26.52 326.01 26.14C326.64 25.96 327.4 25.69 327.71 25.52C328.57 25.06 333.85 24.19 336.5 24.07C338.7 23.97 339.88 24.08 344.25 24.75C349.76 25.6 355.54 29.15 360.13 34.49C363 37.84 366.46 44.71 366.92 48C366.99 48.48 367.26 50.33 367.52 52.1C367.77 53.87 367.93 55.41 367.87 55.51C367.65 55.86 368.04 56.5 368.46 56.5C368.69 56.5 369.38 56.2 370 55.83C370.62 55.47 371.69 55.08 372.38 54.96C373.06 54.85 374.19 54.63 374.88 54.47C376.6 54.09 382.93 53.9 384 54.21C384.48 54.34 385.49 54.59 386.24 54.76C388.52 55.28 392.69 57.44 394.49 59.04C396.05 60.43 398.04 62.39 398.56 63.07C400.38 65.43 402.36 69.06 403.36 71.88C404.89 76.21 405.12 83.63 403.86 88.14C403.61 89.02 404.46 89.72 406.12 90.02C406.95 90.17 407.74 90.39 407.88 90.49C408.01 90.6 408.52 90.77 409 90.87C409.48 90.97 410.11 91.2 410.4 91.38C410.69 91.56 411.34 91.79 411.84 91.88C412.33 91.98 413.39 92.4 414.18 92.82C414.98 93.23 416.38 93.95 417.31 94.41C418.24 94.87 419 95.35 419 95.48C419 95.61 419.24 95.79 419.53 95.88C420.19 96.09 421.14 96.74 423.5 98.6C427.73 101.92 432.46 107.75 434.48 112.12C434.92 113.09 435.39 114.06 435.51 114.3C435.92 115.07 436.71 117.61 437.12 119.5C437.34 120.53 437.63 121.85 437.76 122.44C438.45 125.51 437.87 131.38 436.45 135.75C434.71 141.08 430.92 145.99 425.91 149.36C423.66 150.88 419.06 152.78 417 153.04C415.8 153.2 416.14 153.55 418.5 154.63C419.26 154.98 420.32 155.54 420.88 155.87C421.43 156.21 422.16 156.63 422.5 156.8C423.71 157.43 429.65 161.48 431.38 162.87C432.34 163.64 433.93 165.06 434.9 166.01C436.51 167.58 437.42 168.57 439.9 171.47C441.09 172.86 443.98 177.18 444.93 179C445.77 180.61 446.54 182.46 447.37 184.88C448.76 188.93 448.71 197.53 447.26 201.62C446.51 203.76 445.11 206.44 444.05 207.75C443.18 208.83 442.88 209.14 440.82 211.02C439.82 211.92 436.97 213.91 436.12 214.28C435.85 214.4 435.46 214.6 435.25 214.72C435.04 214.85 434.59 215.07 434.25 215.22C433.91 215.37 433.46 215.6 433.25 215.72C432.05 216.44 430.13 217 428.42 217.15C426.36 217.32 425.87 217.66 426.47 218.47C426.63 218.69 426.94 219.27 427.15 219.75C427.37 220.23 427.85 221.02 428.21 221.5C428.57 221.98 429.24 223.11 429.7 224C430.15 224.89 430.97 226.41 431.51 227.38C432.06 228.34 432.72 229.6 432.99 230.19C433.26 230.77 433.6 231.25 433.74 231.25C433.88 231.25 434 231.51 434 231.83C434 232.14 434.28 232.78 434.62 233.25C434.97 233.72 435.25 234.24 435.25 234.42C435.25 234.7 435.85 236.06 436.55 237.36C436.78 237.79 437.99 241.02 438.71 243.12C439.02 244.04 440.01 250.56 440 251.67C440 252.41 439.91 252.92 439.19 256.5C439.04 257.26 438.71 258.27 438.45 258.75C438.2 259.23 438 259.76 438 259.93C438 260.56 434.84 264.9 433.33 266.33C430.68 268.85 428.56 270.26 425.62 271.46C423.04 272.52 417.98 272.6 414.84 271.62C414.38 271.48 414.29 271.58 414.14 272.42C413.87 273.96 412.95 276.58 412.45 277.22C412.2 277.55 412 277.93 412 278.07C412 278.74 406.44 285 405.84 285C405.67 285 405.35 285.18 405.12 285.41C404.48 286.06 403.01 287 402.65 287C402.47 287 402.03 287.22 401.68 287.5C401.33 287.77 400.92 288 400.76 288C400.6 288 399.57 288.45 398.47 289C397.37 289.55 396.2 290 395.87 290C395.13 290 395 290.21 394.74 291.83C393.4 300.1 387.7 307.59 379.54 311.78C378.39 312.38 377.16 313.22 376.79 313.67C375.17 315.67 371.25 319.67 369.88 320.72C366.93 322.99 365.45 323.85 362.25 325.14L359.88 326.1L355.12 326.11L350.38 326.12L347.38 325.03C343.52 323.63 343.19 323.61 342.99 324.75C342.91 325.23 342.72 325.85 342.57 326.12C342.42 326.4 342.22 327.3 342.12 328.12C342.03 328.95 341.8 330.13 341.62 330.75C341.23 332.11 340 338.68 340 339.38C340.01 340.04 339.08 344.2 338.48 346.25C338.21 347.14 337.99 348.08 338 348.33C338 348.58 337.87 349.02 337.71 349.32C337.56 349.61 337.28 350.36 337.1 350.99C336.65 352.56 335.85 354.83 335.54 355.4C335.4 355.66 334.71 357.06 333.99 358.5C333.28 359.94 332.43 361.57 332.1 362.12C331.78 362.68 331.37 363.41 331.2 363.75C331.02 364.09 330.46 364.92 329.94 365.58C329.42 366.25 329 366.91 329 367.04C329 367.18 328.62 367.76 328.16 368.33C327.7 368.91 327.16 369.68 326.97 370.05C326.67 370.64 323.5 374.94 322.59 376C322.11 376.55 320.27 378.74 319.12 380.12C318.57 380.78 317.96 381.5 317.75 381.73C317.54 381.95 316.43 383.28 315.28 384.69C313.32 387.09 313.2 387.32 313.31 388.19C313.39 388.7 313.37 390.59 313.28 392.38C313.18 394.16 313.15 395.81 313.2 396.04C313.25 396.26 314.03 397.05 314.94 397.78C317.31 399.7 322.77 405.24 324.44 407.41C326.68 410.32 328.75 413.31 329.03 414.04C329.17 414.41 329.43 414.77 329.61 414.83C329.79 414.9 330.02 415.28 330.11 415.67C330.21 416.06 330.43 416.54 330.59 416.75C330.76 416.96 331.22 417.86 331.63 418.75C332.03 419.64 332.46 420.52 332.59 420.7C333.03 421.3 334 423.55 334 423.97C334 424.2 334.23 424.84 334.5 425.38C334.78 425.91 335 426.48 335 426.62C335 426.77 335.22 427.34 335.5 427.87C335.77 428.41 336 429.13 336 429.47C336 430.23 336.96 431.7 337.58 431.9C338.17 432.09 342.35 434.91 343.49 435.88C343.97 436.29 345.25 437.51 346.35 438.6C347.45 439.68 348.69 440.72 349.11 440.92C349.53 441.11 350.66 441.76 351.62 442.37C353.15 443.33 354.15 443.88 357.62 445.64C358.04 445.85 358.54 446.13 358.75 446.26C358.96 446.4 359.41 446.64 359.75 446.81C360.09 446.98 360.89 447.47 361.52 447.9C362.15 448.34 363.02 448.77 363.45 448.86C363.89 448.96 364.32 449.15 364.4 449.29C364.49 449.44 364.91 449.71 365.34 449.9C365.77 450.1 366.29 450.36 366.5 450.49C366.71 450.61 367.21 450.88 367.62 451.08C368.04 451.28 370.29 452.39 372.62 453.56C378.82 456.65 383.04 458.67 383.75 458.88C384.09 458.99 384.64 459.28 384.97 459.53C385.3 459.79 385.78 460 386.04 460C386.3 460 387.27 460.38 388.19 460.85C390.47 462.01 392.67 463 392.95 463C393.08 463 393.32 463.16 393.49 463.36C393.65 463.56 394.14 463.79 394.58 463.88C395.35 464.03 396.65 464.57 398.55 465.53C399.06 465.79 399.7 466 399.98 466C400.26 466 401.17 466.35 402.01 466.77C404.01 467.79 410.09 470.31 411.71 470.79C412.17 470.92 413.31 471.42 414.25 471.89C415.19 472.36 416.14 472.75 416.37 472.75C416.6 472.75 417.42 473.04 418.2 473.4C420.9 474.62 421.13 474.72 422.25 475.08C422.87 475.28 424.16 475.75 425.12 476.12C426.09 476.49 427.16 476.89 427.5 477.01C427.84 477.13 428.86 477.5 429.75 477.84C430.64 478.18 431.77 478.59 432.25 478.76C432.73 478.94 433.65 479.28 434.3 479.54C434.94 479.79 435.68 480 435.93 480C436.19 480 436.51 480.11 436.64 480.24C436.88 480.48 441.69 482.25 443.5 482.78C443.98 482.92 444.82 483.24 445.38 483.49C445.93 483.74 446.77 484.08 447.25 484.24C450.89 485.48 452.51 486.07 453.38 486.47C455.96 487.69 456.71 488 457.12 488C457.36 488 457.97 488.22 458.47 488.49C458.97 488.76 459.94 489.21 460.62 489.5C462.46 490.28 463.55 490.77 464.25 491.15C464.59 491.33 465.16 491.61 465.5 491.77C465.84 491.93 466.29 492.16 466.5 492.28C466.71 492.41 467.27 492.69 467.75 492.91C468.23 493.13 469.2 493.69 469.9 494.15C470.6 494.62 471.25 495 471.35 495C471.82 495 474.75 497.41 474.75 497.8C474.75 497.91 376.48 498 256.38 498C76.34 498 38 497.94 38 497.67Z"/>
<path fill="#E7E2D6" d="M256 296C246 282 224 276 204 282C188 287 178 300 176 316C176 326 180 336 188 342C194 332 204 330 214 328C232 326 248 314 256 304C264 314 280 326 298 328C308 330 318 332 324 342C332 336 336 326 336 316C334 300 324 287 308 282C288 276 266 282 256 296Z"/>
</svg>
